<?xml version="1.0" encoding="iso-8859-1"?>
<!-- Generator: Adobe Illustrator 19.0.0, SVG Export Plug-In . SVG Version: 6.00 Build 0)  -->
<svg version="1.1" id="Capa_1" xmlns="http://www.w3.org/2000/svg" xmlns:xlink="http://www.w3.org/1999/xlink" x="0px" y="0px"
	 viewBox="0 0 512 512" style="enable-background:new 0 0 512 512;" xml:space="preserve">
<g>
	<path style="fill:#FFE100;" d="M384,230.402H196.873l54.127,54.127c6.665,6.665,6.665,17.476,0,24.132l-36.198,36.207
		c-6.665,6.665-17.476,6.665-24.141,0L76.194,230.402H25.6c-9.421,0-17.067,7.646-17.067,17.067v170.667
		c0,9.421,7.646,17.067,17.067,17.067h341.333c9.421,0,17.067-7.646,17.067-17.067V230.402z"/>
	<g>
		<polygon style="fill:#FDCC00;" points="110.325,264.535 8.531,264.535 8.531,315.735 161.525,315.735 		"/>
		<path style="fill:#FDCC00;" d="M231.008,264.535l19.994,19.994c6.665,6.665,6.665,17.476,0,24.132l-7.066,7.074h140.066v-51.2
			H231.008z"/>
	</g>
	<g>
		<polygon style="fill:#FFE100;" points="469.333,384.002 384,349.868 384,298.668 469.333,264.535 		"/>
		<polygon style="fill:#FFE100;" points="469.333,401.068 503.467,401.068 503.467,247.468 469.333,247.468 		"/>
	</g>
	<g>
		<polygon style="fill:#FFA800;" points="486.4,401.068 503.467,401.068 503.467,247.468 486.4,247.468 		"/>
		<path style="fill:#FFA800;" d="M358.4,230.402v187.733c0,9.421-7.646,17.067-17.067,17.067h25.6
			c9.421,0,17.067-7.646,17.067-17.067V230.402H358.4z"/>
	</g>
	<path style="fill:#FFFFFF;" d="M34.133,230.402v187.733c0,9.421,7.646,17.067,17.067,17.067H25.6
		c-9.421,0-17.067-7.646-17.067-17.067V230.402H34.133z"/>
	<g>
		<path style="fill:#63D3FD;" d="M93.867,375.468c0,14.14-11.46,25.6-25.6,25.6s-25.6-11.46-25.6-25.6c0-14.14,11.46-25.6,25.6-25.6
			S93.867,361.329,93.867,375.468"/>
		<polygon style="fill:#63D3FD;" points="273.067,392.535 341.333,392.535 341.333,358.402 273.067,358.402 		"/>
	</g>
	<path style="fill:#FFE100;" d="M251,284.531L106.181,139.712L46.618,76.804c0.009,0.205,0.06,0.393,0.06,0.597
		c0,18.85-15.275,34.133-34.133,34.133c-1.374,0-2.679-0.247-4.011-0.41l49.382,52.727c6.665,6.665,6.665,17.468,0,24.132
		s-6.665,17.468,0,24.141L190.661,344.87c6.665,6.665,17.476,6.665,24.141,0L251,308.663
		C257.665,301.999,257.665,291.196,251,284.531"/>
	<polygon style="fill:#63D3FD;" points="178.592,332.802 142.393,296.595 202.732,236.264 238.931,272.462 	"/>
	<g>
		<path d="M142.566,369.435c3.337,3.337,3.337,8.73,0,12.066c-3.337,3.337-8.73,3.337-12.066,0c-3.337-3.337-3.337-8.73,0-12.066
			S139.23,366.099,142.566,369.435"/>
		<path d="M236.433,369.435c3.337,3.337,3.337,8.73,0,12.066c-3.337,3.337-8.73,3.337-12.066,0c-3.337-3.337-3.337-8.73,0-12.066
			S233.097,366.099,236.433,369.435"/>
		<path d="M392.533,344.09l68.267,27.307v-94.259l-68.267,27.307V344.09z M469.333,392.533c-1.075,0-2.15-0.196-3.166-0.606
			l-85.333-34.133c-3.243-1.297-5.367-4.437-5.367-7.927v-51.2c0-3.482,2.125-6.622,5.367-7.919l85.333-34.133
			c2.603-1.058,5.598-0.734,7.953,0.853c2.338,1.587,3.746,4.233,3.746,7.066V384c0,2.833-1.408,5.478-3.746,7.066
			C472.687,392.038,471.014,392.533,469.333,392.533L469.333,392.533z"/>
		<path d="M199.192,284.531c0,4.71-3.814,8.533-8.533,8.533c-4.71,0-8.533-3.823-8.533-8.533s3.823-8.533,8.533-8.533
			C195.378,275.998,199.192,279.821,199.192,284.531"/>
		<path d="M154.458,296.597l24.132,24.141l48.273-48.282l-24.132-24.132L154.458,296.597z M178.591,341.338L178.591,341.338
			c-2.261,0-4.429-0.905-6.033-2.5l-36.198-36.207c-3.337-3.337-3.337-8.73,0-12.066l60.339-60.339
			c3.337-3.328,8.738-3.328,12.066,0l36.198,36.198c3.337,3.337,3.337,8.738,0,12.066l-60.339,60.348
			C183.028,340.433,180.861,341.338,178.591,341.338L178.591,341.338z"/>
		<path d="M477.867,392.535h17.067V256.002h-17.067V392.535z M503.467,409.602h-34.133c-4.719,0-8.533-3.823-8.533-8.533v-153.6
			c0-4.71,3.814-8.533,8.533-8.533h34.133c4.719,0,8.533,3.823,8.533,8.533v153.6C512,405.779,508.186,409.602,503.467,409.602
			L503.467,409.602z"/>
		<path d="M25.6,238.935c-4.71,0-8.533,3.831-8.533,8.533v170.667c0,4.702,3.823,8.533,8.533,8.533h341.333
			c4.71,0,8.533-3.831,8.533-8.533v-179.2H217.472l39.561,39.561c4.83,4.838,7.501,11.264,7.501,18.099
			c0,6.844-2.671,13.269-7.501,18.108l-36.198,36.198c-9.984,9.984-26.223,9.993-36.207,0L72.661,238.935H25.6z M366.933,443.735
			H25.6c-14.114,0-25.6-11.486-25.6-25.6V247.468c0-14.114,11.486-25.6,25.6-25.6h50.594c2.261,0,4.429,0.896,6.033,2.5
			l114.466,114.466c3.328,3.328,8.738,3.337,12.075,0l36.198-36.207c1.613-1.613,2.5-3.755,2.5-6.033c0-2.278-0.887-4.42-2.5-6.025
			l-54.127-54.135c-2.441-2.441-3.174-6.11-1.852-9.301c1.323-3.183,4.437-5.265,7.885-5.265H384c4.719,0,8.533,3.823,8.533,8.533
			v187.733C392.533,432.249,381.047,443.735,366.933,443.735L366.933,443.735z"/>
		<path d="M68.267,358.402c-9.412,0-17.067,7.654-17.067,17.067c0,9.412,7.654,17.067,17.067,17.067s17.067-7.654,17.067-17.067
			C85.333,366.056,77.679,358.402,68.267,358.402 M68.267,409.602c-18.825,0-34.133-15.309-34.133-34.133
			c0-18.825,15.309-34.133,34.133-34.133s34.133,15.309,34.133,34.133C102.4,394.293,87.091,409.602,68.267,409.602"/>
		<path d="M17.067,307.202h123.861l-34.133-34.133H17.067V307.202z M161.527,324.268H8.533c-4.719,0-8.533-3.823-8.533-8.533v-51.2
			c0-4.71,3.814-8.533,8.533-8.533h101.794c2.261,0,4.429,0.896,6.033,2.5l51.2,51.2c2.441,2.441,3.174,6.11,1.852,9.301
			C168.09,322.186,164.975,324.268,161.527,324.268L161.527,324.268z"/>
		<path d="M262.25,307.202h113.22v-34.133H251.609l5.427,5.427c4.83,4.838,7.501,11.264,7.501,18.099
			C264.537,300.315,263.743,303.916,262.25,307.202 M384.003,324.268H243.937c-3.456,0-6.562-2.082-7.885-5.265
			c-1.331-3.191-0.597-6.861,1.843-9.301l7.074-7.074c1.613-1.613,2.5-3.755,2.5-6.033c0-2.278-0.887-4.42-2.5-6.025l-19.994-20.002
			c-2.441-2.441-3.174-6.11-1.852-9.301c1.314-3.183,4.437-5.265,7.885-5.265h152.994c4.71,0,8.533,3.823,8.533,8.533v51.2
			C392.537,320.445,388.714,324.268,384.003,324.268"/>
		<path d="M281.6,384.002h51.2v-17.067h-51.2V384.002z M341.333,401.068h-68.267c-4.719,0-8.533-3.823-8.533-8.533v-34.133
			c0-4.71,3.814-8.533,8.533-8.533h68.267c4.719,0,8.533,3.823,8.533,8.533v34.133C349.867,397.245,346.052,401.068,341.333,401.068
			L341.333,401.068z"/>
		<path d="M26.425,117.747l37.717,40.269c4.642,4.634,7.305,11.068,7.305,17.903s-2.662,13.269-7.501,18.099
			c-3.319,3.328-3.319,8.738,0,12.075l132.745,132.745c3.345,3.328,8.755,3.319,12.075,0l36.198-36.207
			c1.621-1.613,2.5-3.755,2.5-6.033s-0.879-4.42-2.5-6.033l0,0L100.153,145.745L51.624,94.502
			C46.863,105.348,37.706,113.847,26.425,117.747 M202.724,358.387c-6.545,0-13.107-2.492-18.099-7.484L51.88,218.159
			c-9.984-9.984-9.984-26.223,0-36.207c1.621-1.613,2.5-3.755,2.5-6.033c0-2.278-0.879-4.42-2.5-6.033L2.31,116.962
			c-2.449-2.62-3.012-6.485-1.391-9.685c1.613-3.2,5.035-4.992,8.619-4.625l1.203,0.162c0.589,0.077,1.186,0.179,1.801,0.179
			c13.995,0,25.404-11.281,25.6-25.233c-0.026-0.222-0.043-0.461-0.051-0.606c-0.145-3.558,1.929-6.835,5.214-8.218
			c3.243-1.382,7.066-0.589,9.515,1.997l59.563,62.916L257.03,278.498v-0.009v0.009c4.838,4.83,7.501,11.264,7.501,18.099
			c0,6.835-2.662,13.269-7.501,18.108l-36.198,36.198C215.84,355.895,209.286,358.387,202.724,358.387"/>
	</g>
</g>
<g>
</g>
<g>
</g>
<g>
</g>
<g>
</g>
<g>
</g>
<g>
</g>
<g>
</g>
<g>
</g>
<g>
</g>
<g>
</g>
<g>
</g>
<g>
</g>
<g>
</g>
<g>
</g>
<g>
</g>
</svg>
